<mxfile host="app.diagrams.net" modified="2023-05-29T13:13:32.065Z" agent="Mozilla/5.0 (Windows NT 10.0; Win64; x64) AppleWebKit/537.36 (KHTML, like Gecko) Chrome/113.0.0.0 Safari/537.36" etag="xZv4nsQAGu2CBxHDDHIZ" version="21.3.5" type="github">
  <diagram name="Page-1" id="HkzPi6iRBU2SLV9FUAGW">
    <mxGraphModel dx="1432" dy="808" grid="1" gridSize="10" guides="1" tooltips="1" connect="1" arrows="1" fold="1" page="1" pageScale="1" pageWidth="827" pageHeight="1169" math="0" shadow="0">
      <root>
        <mxCell id="0" />
        <mxCell id="1" parent="0" />
        <mxCell id="904fPhdGzPDFt9y8ftBc-11" style="edgeStyle=orthogonalEdgeStyle;rounded=0;orthogonalLoop=1;jettySize=auto;html=1;exitX=0.5;exitY=1;exitDx=0;exitDy=0;" edge="1" parent="1" source="904fPhdGzPDFt9y8ftBc-1" target="904fPhdGzPDFt9y8ftBc-3">
          <mxGeometry relative="1" as="geometry" />
        </mxCell>
        <mxCell id="904fPhdGzPDFt9y8ftBc-1" value="Start" style="rounded=1;whiteSpace=wrap;html=1;" vertex="1" parent="1">
          <mxGeometry x="360" y="160" width="120" height="60" as="geometry" />
        </mxCell>
        <mxCell id="904fPhdGzPDFt9y8ftBc-7" style="edgeStyle=orthogonalEdgeStyle;rounded=0;orthogonalLoop=1;jettySize=auto;html=1;exitX=1;exitY=0.5;exitDx=0;exitDy=0;entryX=0.5;entryY=0;entryDx=0;entryDy=0;" edge="1" parent="1" source="904fPhdGzPDFt9y8ftBc-3" target="904fPhdGzPDFt9y8ftBc-5">
          <mxGeometry relative="1" as="geometry" />
        </mxCell>
        <mxCell id="904fPhdGzPDFt9y8ftBc-8" style="edgeStyle=orthogonalEdgeStyle;rounded=0;orthogonalLoop=1;jettySize=auto;html=1;exitX=0;exitY=0.5;exitDx=0;exitDy=0;entryX=0.5;entryY=0;entryDx=0;entryDy=0;" edge="1" parent="1" source="904fPhdGzPDFt9y8ftBc-3" target="904fPhdGzPDFt9y8ftBc-4">
          <mxGeometry relative="1" as="geometry" />
        </mxCell>
        <mxCell id="904fPhdGzPDFt9y8ftBc-3" value="number odd or even" style="rounded=1;whiteSpace=wrap;html=1;" vertex="1" parent="1">
          <mxGeometry x="320" y="300" width="200" height="60" as="geometry" />
        </mxCell>
        <mxCell id="904fPhdGzPDFt9y8ftBc-4" value="odd" style="rounded=1;whiteSpace=wrap;html=1;" vertex="1" parent="1">
          <mxGeometry x="180" y="440" width="120" height="60" as="geometry" />
        </mxCell>
        <mxCell id="904fPhdGzPDFt9y8ftBc-5" value="even" style="rounded=1;whiteSpace=wrap;html=1;" vertex="1" parent="1">
          <mxGeometry x="540" y="440" width="120" height="60" as="geometry" />
        </mxCell>
      </root>
    </mxGraphModel>
  </diagram>
</mxfile>
